<?xml version="1.0" standalone="no"?>
<!DOCTYPE svg PUBLIC "-//W3C//DTD SVG 20010904//EN"
 "http://www.w3.org/TR/2001/REC-SVG-20010904/DTD/svg10.dtd">
<svg version="1.0" xmlns="http://www.w3.org/2000/svg"
 width="450.000000pt" height="450.000000pt" viewBox="0 0 450.000000 450.000000"
 preserveAspectRatio="xMidYMid meet">
<metadata>
Created by potrace 1.14, written by Peter Selinger 2001-2017
</metadata>
<g transform="translate(0.000000,450.000000) scale(0.100000,-0.100000)"
fill="#000000" stroke="none">
<path d="M2060 4494 c-14 -2 -65 -9 -115 -15 -526 -64 -1061 -356 -1407 -769
-353 -421 -539 -924 -538 -1460 2 -1015 681 -1903 1660 -2169 416 -112 815
-107 1240 18 349 102 702 319 967 595 91 94 273 321 273 340 0 4 13 27 29 50
42 61 146 271 182 369 204 544 196 1109 -21 1648 -80 198 -187 380 -329 556
-373 465 -893 754 -1491 828 -102 13 -383 18 -450 9z m-604 -721 c15 -15 16
-34 11 -173 -4 -85 -10 -232 -13 -327 l-7 -172 28 -7 c60 -15 60 -19 63 338 2
354 2 351 58 351 15 0 30 -7 35 -14 5 -8 9 -155 9 -327 0 -197 4 -321 10 -333
12 -21 41 -25 71 -9 18 10 19 25 19 340 0 236 3 331 11 336 19 11 71 6 80 -8
5 -7 9 -160 9 -339 0 -351 -2 -339 50 -339 41 0 42 13 26 347 l-16 318 21 18
c21 16 52 16 72 -2 8 -8 37 -543 37 -686 0 -118 -34 -218 -116 -341 -126 -191
-134 -215 -134 -398 0 -141 18 -304 74 -651 49 -312 59 -408 59 -600 1 -180
-12 -283 -45 -375 -49 -134 -140 -189 -242 -146 -157 66 -193 450 -100 1076
127 858 127 866 -33 1075 -30 39 -73 108 -96 155 l-42 85 1 245 c0 135 4 316
8 403 8 149 9 159 30 167 32 13 43 12 62 -7z m1521 -5 c10 -8 13 -209 13 -954
0 -926 0 -944 19 -944 11 0 27 -7 35 -16 24 -23 4 -54 -34 -54 -17 0 -30 -3
-30 -7 0 -5 9 -60 20 -123 50 -289 68 -649 40 -814 -30 -187 -105 -296 -203
-296 -115 0 -189 100 -217 295 -25 181 3 646 56 918 5 22 2 27 -14 27 -51 0
-71 38 -33 62 18 11 17 13 -7 59 -37 72 -44 184 -39 589 4 345 5 360 36 535
59 335 124 537 223 689 34 52 95 68 135 34z"/>
</g>
</svg>
