<?xml version="1.0" standalone="no"?>
<!DOCTYPE svg PUBLIC "-//W3C//DTD SVG 20010904//EN"
 "http://www.w3.org/TR/2001/REC-SVG-20010904/DTD/svg10.dtd">
<svg version="1.0" xmlns="http://www.w3.org/2000/svg"
 width="700.000000pt" height="700.000000pt" viewBox="0 0 700.000000 700.000000"
 preserveAspectRatio="xMidYMid meet">
<metadata>
Created by potrace 1.14, written by Peter Selinger 2001-2017
</metadata>
<g transform="translate(0.000000,700.000000) scale(0.100000,-0.100000)"
fill="#000000" stroke="none">
<path d="M3295 6990 c-864 -54 -1656 -411 -2265 -1020 -568 -568 -916 -1294
-1006 -2095 -22 -199 -22 -550 0 -750 127 -1141 796 -2141 1804 -2694 405
-222 861 -363 1342 -413 146 -15 533 -14 670 1 468 53 840 161 1235 361 914
461 1576 1292 1820 2285 71 289 98 523 98 840 -1 429 -66 797 -210 1195 -354
977 -1159 1768 -2144 2105 -426 146 -907 212 -1344 185z m2995 -2575 l0 -305
-150 0 -150 0 -2 -1187 -3 -1188 -227 -3 -228 -2 0 960 0 960 -2030 0 -2030 0
0 -960 0 -960 -230 0 -230 0 0 1185 0 1184 -152 3 -153 3 -3 308 -2 307 2795
0 2795 0 0 -305z"/>
</g>
</svg>
